<?xml version="1.0" encoding="utf-8"?>
<!-- Generator: Adobe Illustrator 16.0.0, SVG Export Plug-In . SVG Version: 6.00 Build 0)  -->
<!DOCTYPE svg PUBLIC "-//W3C//DTD SVG 1.1//EN" "http://www.w3.org/Graphics/SVG/1.1/DTD/svg11.dtd">
<svg version="1.1" id="Layer_1" xmlns="http://www.w3.org/2000/svg" xmlns:xlink="http://www.w3.org/1999/xlink" x="0px" y="0px"
	 width="282px" height="66px" viewBox="0 0 282 66" enable-background="new 0 0 282 66" xml:space="preserve">
<text transform="matrix(1 0 0 1 76.4995 49.834)" font-family="'ArialMT'" font-size="48">S</text>
<text transform="matrix(1 0 0 1 106.1157 49.834)" font-family="'ArialMT'" font-size="48" letter-spacing="-1">u</text>
<text transform="matrix(1 0 0 1 135.1548 49.834)" font-family="'ArialMT'" font-size="48">bli</text>
<text transform="matrix(1 0 0 1 193.1846 49.834)" font-family="'ArialMT'" font-size="48">m</text>
<text transform="matrix(1 0 0 1 241.8564 49.834)" font-family="'ArialMT'" font-size="48">e.</text>
<path fill="#FFFFFF" d="M33.333,0.272l-30,16.364v33.085l30,16.006l30-16.006v-32.91L33.333,0.272z M30.607,58.089l-18.175-9.693
	l11.457-7.64c2.945-1.961-0.18-6.434-3.39-4.295L8.788,44.265V22.716l21.818,11.899L30.607,58.089L30.607,58.089z M11.879,18.189
	L30.607,7.973v12.071c0,3.608,5.455,3.611,5.455,0V8.003l18.845,10.394L33.348,29.902C33.348,29.901,11.879,18.189,11.879,18.189z
	 M36.061,34.634l21.818-11.642v21.272l-11.626-7.75c-3.221-2.142-6.335,2.332-3.395,4.293l11.378,7.584L36.061,58.09V34.634z"/>
</svg>
